ffmpeg started on 2016-12-09 at 04:08:35
Report written to "Output/x264/results/ffmpeg/sintelplacebo500k.log"
Command line:
Tools/ffmpeg/ffmpeg -benchmark -y -i Input/y4m/sintel.y4m -c:v libx264 -preset placebo -b:v 500k -an Output/x264/encoded/sintelplacebo500k.mkv
ffmpeg version N-82227-gdb23fde Copyright (c) 2000-2016 the FFmpeg developers
  built with gcc 5.4.0 (Ubuntu 5.4.0-6ubuntu1~16.04.2) 20160609
  configuration: --prefix=/home/jaroslav/ffmpeg_build --pkg-config-flags=--static --extra-cflags=-I/home/jaroslav/ffmpeg_build/include --extra-ldflags=-L/home/jaroslav/ffmpeg_build/lib --bindir=/home/jaroslav/bin --enable-gpl --enable-libass --enable-libfdk-aac --enable-libfreetype --enable-libmp3lame --enable-libopus --enable-libtheora --enable-libvorbis --enable-libvpx --enable-libx264 --enable-libx265 --enable-nvenc --enable-libmfx --enable-libxvid --enable-libgsm --enable-libopencore-amrnb --enable-version3 --enable-nonfree
  libavutil      55. 35.100 / 55. 35.100
  libavcodec     57. 66.101 / 57. 66.101
  libavformat    57. 57.100 / 57. 57.100
  libavdevice    57.  2.100 / 57.  2.100
  libavfilter     6. 66.100 /  6. 66.100
  libswscale      4.  3.100 /  4.  3.100
  libswresample   2.  4.100 /  2.  4.100
  libpostproc    54.  2.100 / 54.  2.100
Input #0, yuv4mpegpipe, from 'Input/y4m/sintel.y4m':
  Duration: 00:00:20.83, start: 0.000000, bitrate: 2057307 kb/s
    Stream #0:0: Video: rawvideo (I420 / 0x30323449), yuv420p(progressive), 4096x1744, SAR 1:1 DAR 256:109, 24 fps, 24 tbr, 24 tbn, 24 tbc
[libx264 @ 0x343a1c0] using SAR=1/1
[libx264 @ 0x343a1c0] DPB size (16 frames, 446464 mbs) > level limit (6 frames, 184320 mbs)
[libx264 @ 0x343a1c0] using cpu capabilities: MMX2 SSE2Fast SSSE3 SSE4.2 AVX FMA3 AVX2 LZCNT BMI2
[libx264 @ 0x343a1c0] profile High, level 5.2
[libx264 @ 0x343a1c0] 264 - core 148 - H.264/MPEG-4 AVC codec - Copyleft 2003-2016 - http://www.videolan.org/x264.html - options: cabac=1 ref=16 deblock=1:0:0 analyse=0x3:0x133 me=tesa subme=11 psy=1 psy_rd=1.00:0.00 mixed_ref=1 me_range=24 chroma_me=1 trellis=2 8x8dct=1 cqm=0 deadzone=21,11 fast_pskip=0 chroma_qp_offset=-2 threads=6 lookahead_threads=1 sliced_threads=0 nr=0 decimate=1 interlaced=0 bluray_compat=0 constrained_intra=0 bframes=16 b_pyramid=2 b_adapt=2 b_bias=0 direct=3 weightb=1 open_gop=0 weightp=2 keyint=250 keyint_min=24 scenecut=40 intra_refresh=0 rc_lookahead=60 rc=abr mbtree=1 bitrate=500 ratetol=1.0 qcomp=0.60 qpmin=0 qpmax=69 qpstep=4 ip_ratio=1.40 aq=1:1.00
Output #0, matroska, to 'Output/x264/encoded/sintelplacebo500k.mkv':
  Metadata:
    encoder         : Lavf57.57.100
    Stream #0:0: Video: h264 (libx264) (H264 / 0x34363248), yuv420p, 4096x1744 [SAR 1:1 DAR 256:109], q=-1--1, 500 kb/s, 24 fps, 1k tbn, 24 tbc
    Metadata:
      encoder         : Lavc57.66.101 libx264
    Side data:
      cpb: bitrate max/min/avg: 0/0/500000 buffer size: 0 vbv_delay: -1
Stream mapping:
  Stream #0:0 -> #0:0 (rawvideo (native) -> h264 (libx264))
Press [q] to stop, [?] for help
frame=    7 fps=5.6 q=0.0 size=       0kB time=00:00:00.00 bitrate=N/A speed=   0x    frame=    8 fps=3.9 q=0.0 size=       0kB time=00:00:00.00 bitrate=N/A speed=   0x    frame=    9 fps=3.2 q=0.0 size=       0kB time=00:00:00.00 bitrate=N/A speed=   0x    frame=   10 fps=2.8 q=0.0 size=       0kB time=00:00:00.00 bitrate=N/A speed=   0x    frame=   11 fps=2.5 q=0.0 size=       0kB time=00:00:00.00 bitrate=N/A speed=   0x    frame=   12 fps=2.3 q=0.0 size=       0kB time=00:00:00.00 bitrate=N/A speed=   0x    frame=   13 fps=1.5 q=0.0 size=       0kB time=00:00:00.00 bitrate=N/A speed=   0x    frame=   14 fps=1.5 q=0.0 size=       0kB time=00:00:00.00 bitrate=N/A speed=   0x    frame=   15 fps=1.5 q=0.0 size=       0kB time=00:00:00.00 bitrate=N/A speed=   0x    frame=   16 fps=1.4 q=0.0 size=       0kB time=00:00:00.00 bitrate=N/A speed=   0x    frame=   17 fps=1.4 q=0.0 size=       0kB time=00:00:00.00 bitrate=N/A speed=   0x    frame=   18 fps=1.5 q=0.0 size=       0kB time=00:00:00.00 bitrate=N/A speed=   0x    frame=   19 fps=1.4 q=0.0 size=       0kB time=00:00:00.00 bitrate=N/A speed=   0x    frame=   20 fps=1.4 q=0.0 size=       0kB time=00:00:00.00 bitrate=N/A speed=   0x    frame=   21 fps=1.4 q=0.0 size=       0kB time=00:00:00.00 bitrate=N/A speed=   0x    frame=   22 fps=1.4 q=0.0 size=       0kB time=00:00:00.00 bitrate=N/A speed=   0x    frame=   23 fps=1.4 q=0.0 size=       0kB time=00:00:00.00 bitrate=N/A speed=   0x    frame=   24 fps=1.4 q=0.0 size=       0kB time=00:00:00.00 bitrate=N/A speed=   0x    frame=   25 fps=1.4 q=0.0 size=       0kB time=00:00:00.00 bitrate=N/A speed=   0x    frame=   26 fps=1.4 q=0.0 size=       0kB time=00:00:00.00 bitrate=N/A speed=   0x    frame=   27 fps=1.4 q=0.0 size=       0kB time=00:00:00.00 bitrate=N/A speed=   0x    frame=   28 fps=1.4 q=0.0 size=       0kB time=00:00:00.00 bitrate=N/A speed=   0x    frame=   29 fps=1.4 q=0.0 size=       0kB time=00:00:00.00 bitrate=N/A speed=   0x    frame=   30 fps=1.4 q=0.0 size=       0kB time=00:00:00.00 bitrate=N/A speed=   0x    frame=   31 fps=1.4 q=0.0 size=       0kB time=00:00:00.00 bitrate=N/A speed=   0x    frame=   32 fps=1.4 q=0.0 size=       0kB time=00:00:00.00 bitrate=N/A speed=   0x    frame=   33 fps=1.4 q=0.0 size=       0kB time=00:00:00.00 bitrate=N/A speed=   0x    frame=   34 fps=1.4 q=0.0 size=       0kB time=00:00:00.00 bitrate=N/A speed=   0x    frame=   35 fps=1.4 q=0.0 size=       0kB time=00:00:00.00 bitrate=N/A speed=   0x    frame=   36 fps=1.4 q=0.0 size=       0kB time=00:00:00.00 bitrate=N/A speed=   0x    frame=   37 fps=1.4 q=0.0 size=       0kB time=00:00:00.00 bitrate=N/A speed=   0x    frame=   38 fps=1.4 q=0.0 size=       0kB time=00:00:00.00 bitrate=N/A speed=   0x    frame=   39 fps=1.4 q=0.0 size=       0kB time=00:00:00.00 bitrate=N/A speed=   0x    frame=   40 fps=1.4 q=0.0 size=       0kB time=00:00:00.00 bitrate=N/A speed=   0x    frame=   41 fps=1.4 q=0.0 size=       0kB time=00:00:00.00 bitrate=N/A speed=   0x    frame=   42 fps=1.4 q=0.0 size=       0kB time=00:00:00.00 bitrate=N/A speed=   0x    frame=   43 fps=1.4 q=0.0 size=       0kB time=00:00:00.00 bitrate=N/A speed=   0x    frame=   44 fps=1.4 q=0.0 size=       0kB time=00:00:00.00 bitrate=N/A speed=   0x    frame=   45 fps=1.4 q=0.0 size=       0kB time=00:00:00.00 bitrate=N/A speed=   0x    frame=   46 fps=1.4 q=0.0 size=       0kB time=00:00:00.00 bitrate=N/A speed=   0x    frame=   47 fps=1.4 q=0.0 size=       0kB time=00:00:00.00 bitrate=N/A speed=   0x    frame=   48 fps=1.4 q=0.0 size=       0kB time=00:00:00.00 bitrate=N/A speed=   0x    frame=   49 fps=1.4 q=0.0 size=       0kB time=00:00:00.00 bitrate=N/A speed=   0x    frame=   50 fps=1.4 q=0.0 size=       0kB time=00:00:00.00 bitrate=N/A speed=   0x    frame=   51 fps=1.4 q=0.0 size=       0kB time=00:00:00.00 bitrate=N/A speed=   0x    frame=   52 fps=1.4 q=0.0 size=       0kB time=00:00:00.00 bitrate=N/A speed=   0x    frame=   53 fps=1.4 q=0.0 size=       0kB time=00:00:00.00 bitrate=N/A speed=   0x    frame=   54 fps=1.4 q=0.0 size=       0kB time=00:00:00.00 bitrate=N/A speed=   0x    frame=   55 fps=1.4 q=0.0 size=       0kB time=00:00:00.00 bitrate=N/A speed=   0x    frame=   56 fps=1.4 q=0.0 size=       0kB time=00:00:00.00 bitrate=N/A speed=   0x    frame=   57 fps=1.4 q=0.0 size=       0kB time=00:00:00.00 bitrate=N/A speed=   0x    frame=   58 fps=1.4 q=0.0 size=       0kB time=00:00:00.00 bitrate=N/A speed=   0x    frame=   59 fps=1.4 q=0.0 size=       0kB time=00:00:00.00 bitrate=N/A speed=   0x    frame=   60 fps=1.4 q=0.0 size=       0kB time=00:00:00.00 bitrate=N/A speed=   0x    frame=   61 fps=1.4 q=0.0 size=       0kB time=00:00:00.00 bitrate=N/A speed=   0x    frame=   62 fps=1.4 q=0.0 size=       0kB time=00:00:00.00 bitrate=N/A speed=   0x    frame=   63 fps=1.4 q=0.0 size=       0kB time=00:00:00.00 bitrate=N/A speed=   0x    frame=   64 fps=1.4 q=0.0 size=       0kB time=00:00:00.00 bitrate=N/A speed=   0x    frame=   65 fps=1.4 q=0.0 size=       0kB time=00:00:00.00 bitrate=N/A speed=   0x    frame=   66 fps=1.4 q=0.0 size=       0kB time=00:00:00.00 bitrate=N/A speed=   0x    frame=   67 fps=1.4 q=0.0 size=       0kB time=00:00:00.00 bitrate=N/A speed=   0x    frame=   68 fps=1.4 q=0.0 size=       0kB time=00:00:00.00 bitrate=N/A speed=   0x    frame=   69 fps=1.4 q=0.0 size=       0kB time=00:00:00.00 bitrate=N/A speed=   0x    frame=   70 fps=1.4 q=0.0 size=       0kB time=00:00:00.00 bitrate=N/A speed=   0x    frame=   71 fps=1.4 q=0.0 size=       0kB time=00:00:00.00 bitrate=N/A speed=   0x    frame=   72 fps=1.4 q=0.0 size=       0kB time=00:00:00.00 bitrate=N/A speed=   0x    frame=   73 fps=1.4 q=0.0 size=       0kB time=00:00:00.00 bitrate=N/A speed=   0x    frame=   74 fps=1.4 q=0.0 size=       0kB time=00:00:00.00 bitrate=N/A speed=   0x    frame=   75 fps=1.4 q=0.0 size=       0kB time=00:00:00.00 bitrate=N/A speed=   0x    frame=   76 fps=1.4 q=0.0 size=       0kB time=00:00:00.00 bitrate=N/A speed=   0x    frame=   77 fps=1.4 q=0.0 size=       0kB time=00:00:00.00 bitrate=N/A speed=   0x    frame=   78 fps=1.4 q=0.0 size=       0kB time=00:00:00.00 bitrate=N/A speed=   0x    frame=   80 fps=1.4 q=0.0 size=       0kB time=00:00:00.00 bitrate=N/A speed=   0x    frame=   81 fps=1.4 q=0.0 size=       0kB time=00:00:00.00 bitrate=N/A speed=   0x    frame=   82 fps=1.4 q=0.0 size=       0kB time=00:00:00.00 bitrate=N/A speed=   0x    frame=   83 fps=1.4 q=0.0 size=       0kB time=00:00:00.00 bitrate=N/A speed=   0x    frame=   84 fps=0.7 q=0.0 size=       0kB time=00:00:00.00 bitrate=N/A speed=   0x    frame=   85 fps=0.7 q=0.0 size=       0kB time=00:00:00.00 bitrate=N/A speed=   0x    frame=   88 fps=0.7 q=51.0 size=       1kB time=-00:00:00.08 bitrate=N/A speed=N/A    frame=   90 fps=0.7 q=55.0 size=       1kB time=00:00:00.00 bitrate=5888.0kbits/s speed=7.33e-06x    frame=   92 fps=0.7 q=60.0 size=       1kB time=00:00:00.08 bitrate=  70.1kbits/s speed=0.000598x    frame=   94 fps=0.7 q=61.0 size=       1kB time=00:00:00.16 bitrate=  35.0kbits/s speed=0.00117x    frame=   96 fps=0.7 q=62.0 size=       1kB time=00:00:00.25 bitrate=  23.5kbits/s speed=0.00171x    frame=   98 fps=0.7 q=64.0 size=       1kB time=00:00:00.33 bitrate=  17.6kbits/s speed=0.00222x    frame=   99 fps=0.7 q=65.0 size=       1kB time=00:00:00.37 bitrate=  15.7kbits/s speed=0.00248x    frame=  100 fps=0.7 q=65.0 size=       1kB time=00:00:00.41 bitrate=  14.1kbits/s speed=0.00273x    frame=  101 fps=0.7 q=65.0 size=       1kB time=00:00:00.45 bitrate=  12.8kbits/s speed=0.00297x    frame=  103 fps=0.7 q=67.0 size=       1kB time=00:00:00.54 bitrate=  10.8kbits/s speed=0.00345x    frame=  104 fps=0.7 q=67.0 size=       1kB time=00:00:00.58 bitrate=  10.1kbits/s speed=0.00367x    frame=  105 fps=0.7 q=68.0 size=       1kB time=00:00:00.62 bitrate=   9.4kbits/s speed=0.00389x    frame=  106 fps=0.7 q=68.0 size=       1kB time=00:00:00.66 bitrate=   8.8kbits/s speed=0.00412x    frame=  107 fps=0.7 q=68.0 size=       1kB time=00:00:00.70 bitrate=   8.3kbits/s speed=0.00432x    frame=  108 fps=0.7 q=68.0 size=       1kB time=00:00:00.75 bitrate=   7.8kbits/s speed=0.00454x    frame=  109 fps=0.6 q=68.0 size=       1kB time=00:00:00.79 bitrate=   7.4kbits/s speed=0.00471x    frame=  110 fps=0.6 q=69.0 size=       1kB time=00:00:00.83 bitrate=   7.1kbits/s speed=0.00483x    frame=  111 fps=0.6 q=69.0 size=       1kB time=00:00:00.87 bitrate=   6.7kbits/s speed=0.00502x    frame=  112 fps=0.6 q=69.0 size=       1kB time=00:00:00.91 bitrate=   6.4kbits/s speed=0.00519x    frame=  113 fps=0.6 q=69.0 size=       1kB time=00:00:00.95 bitrate=   6.1kbits/s speed=0.00539x    frame=  115 fps=0.6 q=69.0 size=       1kB time=00:00:01.04 bitrate=   5.6kbits/s speed=0.00576x    frame=  116 fps=0.6 q=69.0 size=       1kB time=00:00:01.08 bitrate=   5.4kbits/s speed=0.00583x    frame=  117 fps=0.6 q=69.0 size=       1kB time=00:00:01.12 bitrate=   5.2kbits/s speed=0.00601x    frame=  118 fps=0.6 q=69.0 size=       1kB time=00:00:01.16 bitrate=   5.0kbits/s speed=0.00616x    frame=  119 fps=0.6 q=69.0 size=       1kB time=00:00:01.20 bitrate=   4.9kbits/s speed=0.00629x    frame=  120 fps=0.6 q=69.0 size=       1kB time=00:00:01.25 bitrate=   4.7kbits/s speed=0.00646x    frame=  121 fps=0.6 q=69.0 size=       1kB time=00:00:01.29 bitrate=   4.6kbits/s speed=0.00662x    frame=  122 fps=0.6 q=69.0 size=       1kB time=00:00:01.33 bitrate=   4.4kbits/s speed=0.00674x    frame=  123 fps=0.6 q=69.0 size=       1kB time=00:00:01.37 bitrate=   4.3kbits/s speed=0.00691x    frame=  124 fps=0.6 q=69.0 size=       1kB time=00:00:01.41 bitrate=   4.2kbits/s speed=0.00706x    frame=  125 fps=0.6 q=69.0 size=       1kB time=00:00:01.45 bitrate=   4.0kbits/s speed=0.00718x    frame=  126 fps=0.6 q=69.0 size=       1kB time=00:00:01.50 bitrate=   3.9kbits/s speed=0.00733x    frame=  127 fps=0.6 q=69.0 size=       1kB time=00:00:01.54 bitrate=   3.8kbits/s speed=0.00747x    frame=  128 fps=0.6 q=69.0 size=       1kB time=00:00:01.58 bitrate=   3.7kbits/s speed=0.00757x    frame=  129 fps=0.6 q=69.0 size=       1kB time=00:00:01.62 bitrate=   3.6kbits/s speed=0.00772x    frame=  130 fps=0.6 q=69.0 size=       1kB time=00:00:01.66 bitrate=   3.5kbits/s speed=0.00788x    frame=  131 fps=0.6 q=69.0 size=       1kB time=00:00:01.70 bitrate=   3.4kbits/s speed=0.00802x    frame=  132 fps=0.6 q=69.0 size=       1kB time=00:00:01.75 bitrate=   3.4kbits/s speed=0.00815x    frame=  133 fps=0.6 q=69.0 size=       1kB time=00:00:01.79 bitrate=   3.3kbits/s speed=0.00829x    frame=  134 fps=0.6 q=68.0 size=       1kB time=00:00:01.83 bitrate=   3.2kbits/s speed=0.00839x    frame=  135 fps=0.6 q=68.0 size=       1kB time=00:00:01.87 bitrate=   3.1kbits/s speed=0.00855x    frame=  136 fps=0.6 q=68.0 size=       1kB time=00:00:01.91 bitrate=   3.1kbits/s speed=0.00868x    frame=  137 fps=0.6 q=68.0 size=       1kB time=00:00:01.95 bitrate=   3.0kbits/s speed=0.00881x    frame=  138 fps=0.6 q=68.0 size=       1kB time=00:00:02.00 bitrate=   2.9kbits/s speed=0.00895x    frame=  139 fps=0.6 q=68.0 size=       1kB time=00:00:02.04 bitrate=   2.9kbits/s speed=0.00908x    frame=  140 fps=0.6 q=68.0 size=       1kB time=00:00:02.08 bitrate=   2.8kbits/s speed=0.00921x    frame=  141 fps=0.6 q=68.0 size=       1kB time=00:00:02.12 bitrate=   2.8kbits/s speed=0.00935x    frame=  142 fps=0.6 q=68.0 size=       1kB time=00:00:02.16 bitrate=   2.7kbits/s speed=0.00949x    frame=  143 fps=0.6 q=68.0 size=       1kB time=00:00:02.20 bitrate=   2.7kbits/s speed=0.00963x    frame=  144 fps=0.6 q=68.0 size=       1kB time=00:00:02.25 bitrate=   2.6kbits/s speed=0.00977x    frame=  145 fps=0.6 q=67.0 size=       1kB time=00:00:02.29 bitrate=   2.6kbits/s speed=0.0099x    frame=  146 fps=0.6 q=67.0 size=       1kB time=00:00:02.33 bitrate=   2.5kbits/s speed=0.01x    frame=  147 fps=0.6 q=67.0 size=       1kB time=00:00:02.37 bitrate=   2.5kbits/s speed=0.0102x    frame=  148 fps=0.6 q=67.0 size=       1kB time=00:00:02.41 bitrate=   2.4kbits/s speed=0.0103x    frame=  149 fps=0.6 q=67.0 size=       1kB time=00:00:02.45 bitrate=   2.4kbits/s speed=0.0104x    frame=  150 fps=0.6 q=67.0 size=       1kB time=00:00:02.50 bitrate=   2.4kbits/s speed=0.0106x    frame=  151 fps=0.6 q=67.0 size=       1kB time=00:00:02.54 bitrate=   2.3kbits/s speed=0.0107x    frame=  152 fps=0.6 q=67.0 size=       1kB time=00:00:02.58 bitrate=   2.3kbits/s speed=0.0108x    frame=  153 fps=0.6 q=66.0 size=       1kB time=00:00:02.62 bitrate=   2.2kbits/s speed=0.011x    frame=  154 fps=0.6 q=66.0 size=       1kB time=00:00:02.66 bitrate=   2.2kbits/s speed=0.011x    frame=  155 fps=0.6 q=66.0 size=       1kB time=00:00:02.70 bitrate=   2.2kbits/s speed=0.0111x    frame=  156 fps=0.6 q=66.0 size=       1kB time=00:00:02.75 bitrate=   2.1kbits/s speed=0.0112x    frame=  157 fps=0.6 q=66.0 size=       1kB time=00:00:02.79 bitrate=   2.1kbits/s speed=0.0113x    frame=  158 fps=0.6 q=66.0 size=       1kB time=00:00:02.83 bitrate=   2.1kbits/s speed=0.0114x    frame=  159 fps=0.6 q=66.0 size=       1kB time=00:00:02.87 bitrate=   2.0kbits/s speed=0.0115x    frame=  160 fps=0.6 q=67.0 size=       1kB time=00:00:02.91 bitrate=   2.0kbits/s speed=0.0116x    frame=  161 fps=0.6 q=67.0 size=       1kB time=00:00:02.95 bitrate=   2.0kbits/s speed=0.0117x    frame=  162 fps=0.6 q=67.0 size=       1kB time=00:00:03.00 bitrate=   2.0kbits/s speed=0.0118x    frame=  163 fps=0.6 q=67.0 size=       1kB time=00:00:03.04 bitrate=   1.9kbits/s speed=0.0118x    frame=  164 fps=0.6 q=67.0 size=       1kB time=00:00:03.08 bitrate=   1.9kbits/s speed=0.0119x    frame=  165 fps=0.6 q=67.0 size=       1kB time=00:00:03.12 bitrate=   1.9kbits/s speed=0.012x    frame=  166 fps=0.6 q=67.0 size=       1kB time=00:00:03.16 bitrate=   1.9kbits/s speed=0.0121x    frame=  167 fps=0.6 q=67.0 size=       1kB time=00:00:03.20 bitrate=   1.8kbits/s speed=0.0122x    frame=  168 fps=0.6 q=67.0 size=       1kB time=00:00:03.25 bitrate=   1.8kbits/s speed=0.0123x    frame=  169 fps=0.6 q=67.0 size=       1kB time=00:00:03.29 bitrate=   1.8kbits/s speed=0.0124x    frame=  170 fps=0.6 q=67.0 size=       1kB time=00:00:03.33 bitrate=   1.8kbits/s speed=0.0124x    frame=  171 fps=0.6 q=67.0 size=       1kB time=00:00:03.37 bitrate=   1.7kbits/s speed=0.0125x    frame=  172 fps=0.6 q=68.0 size=       1kB time=00:00:03.41 bitrate=   1.7kbits/s speed=0.0126x    frame=  173 fps=0.6 q=68.0 size=       1kB time=00:00:03.45 bitrate=   1.7kbits/s speed=0.0127x    frame=  174 fps=0.6 q=68.0 size=       1kB time=00:00:03.50 bitrate=   1.7kbits/s speed=0.0127x    frame=  175 fps=0.6 q=68.0 size=       1kB time=00:00:03.54 bitrate=   1.7kbits/s speed=0.0128x    frame=  176 fps=0.6 q=68.0 size=       1kB time=00:00:03.58 bitrate=   1.6kbits/s speed=0.0129x    frame=  177 fps=0.6 q=68.0 size=       1kB time=00:00:03.62 bitrate=   1.6kbits/s speed=0.013x    frame=  178 fps=0.6 q=68.0 size=       1kB time=00:00:03.66 bitrate=   1.6kbits/s speed=0.013x    frame=  179 fps=0.6 q=68.0 size=       1kB time=00:00:03.70 bitrate=   1.6kbits/s speed=0.0131x    frame=  180 fps=0.6 q=68.0 size=       1kB time=00:00:03.75 bitrate=   1.6kbits/s speed=0.0132x    frame=  181 fps=0.6 q=68.0 size=       1kB time=00:00:03.79 bitrate=   1.6kbits/s speed=0.0133x    frame=  182 fps=0.6 q=68.0 size=       1kB time=00:00:03.83 bitrate=   1.5kbits/s speed=0.0133x    frame=  183 fps=0.6 q=68.0 size=       1kB time=00:00:03.87 bitrate=   1.5kbits/s speed=0.0134x    frame=  184 fps=0.6 q=68.0 size=       1kB time=00:00:03.91 bitrate=   1.5kbits/s speed=0.0135x    frame=  185 fps=0.6 q=68.0 size=       1kB time=00:00:03.95 bitrate=   1.5kbits/s speed=0.0136x    frame=  186 fps=0.6 q=68.0 size=       1kB time=00:00:04.00 bitrate=   1.5kbits/s speed=0.0137x    frame=  187 fps=0.6 q=68.0 size=       1kB time=00:00:04.04 bitrate=   1.5kbits/s speed=0.0138x    frame=  188 fps=0.6 q=68.0 size=       1kB time=00:00:04.08 bitrate=   1.4kbits/s speed=0.0139x    frame=  189 fps=0.6 q=68.0 size=       1kB time=00:00:04.12 bitrate=   1.4kbits/s speed=0.0139x    frame=  191 fps=0.6 q=68.0 size=       1kB time=00:00:04.20 bitrate=   1.4kbits/s speed=0.0141x    frame=  193 fps=0.6 q=68.0 size=       1kB time=00:00:04.29 bitrate=   1.4kbits/s speed=0.0144x    frame=  195 fps=0.6 q=67.0 size=       1kB time=00:00:04.37 bitrate=   1.3kbits/s speed=0.0145x    frame=  197 fps=0.6 q=67.0 size=       1kB time=00:00:04.45 bitrate=   1.3kbits/s speed=0.0147x    frame=  198 fps=0.6 q=67.0 size=       1kB time=00:00:04.50 bitrate=   1.3kbits/s speed=0.0147x    frame=  199 fps=0.6 q=67.0 size=       1kB time=00:00:04.54 bitrate=   1.3kbits/s speed=0.0148x    frame=  200 fps=0.6 q=67.0 size=       1kB time=00:00:04.58 bitrate=   1.3kbits/s speed=0.0149x    frame=  201 fps=0.7 q=67.0 size=       1kB time=00:00:04.62 bitrate=   1.3kbits/s speed=0.015x    frame=  202 fps=0.7 q=67.0 size=       1kB time=00:00:04.66 bitrate=   1.3kbits/s speed=0.0151x    frame=  203 fps=0.7 q=67.0 size=       1kB time=00:00:04.70 bitrate=   1.3kbits/s speed=0.0151x    frame=  204 fps=0.7 q=67.0 size=       1kB time=00:00:04.75 bitrate=   1.2kbits/s speed=0.0152x    frame=  205 fps=0.7 q=67.0 size=       1kB time=00:00:04.79 bitrate=   1.2kbits/s speed=0.0153x    frame=  206 fps=0.7 q=67.0 size=       1kB time=00:00:04.83 bitrate=   1.2kbits/s speed=0.0153x    frame=  207 fps=0.7 q=67.0 size=       1kB time=00:00:04.87 bitrate=   1.2kbits/s speed=0.0154x    frame=  208 fps=0.7 q=66.0 size=     325kB time=00:00:04.91 bitrate= 541.8kbits/s speed=0.0155x    frame=  209 fps=0.7 q=66.0 size=     325kB time=00:00:04.95 bitrate= 537.3kbits/s speed=0.0156x    frame=  211 fps=0.7 q=66.0 size=     325kB time=00:00:05.04 bitrate= 528.4kbits/s speed=0.0157x    frame=  212 fps=0.7 q=66.0 size=     325kB time=00:00:05.08 bitrate= 524.1kbits/s speed=0.0157x    frame=  213 fps=0.7 q=66.0 size=     325kB time=00:00:05.12 bitrate= 519.8kbits/s speed=0.0158x    frame=  214 fps=0.7 q=66.0 size=     325kB time=00:00:05.16 bitrate= 515.6kbits/s speed=0.0158x    frame=  215 fps=0.7 q=66.0 size=     325kB time=00:00:05.20 bitrate= 511.6kbits/s speed=0.0159x    frame=  216 fps=0.7 q=67.0 size=     325kB time=00:00:05.25 bitrate= 507.5kbits/s speed=0.016x    frame=  217 fps=0.7 q=67.0 size=     325kB time=00:00:05.29 bitrate= 503.4kbits/s speed=0.016x    frame=  218 fps=0.7 q=67.0 size=     325kB time=00:00:05.33 bitrate= 499.6kbits/s speed=0.016x    frame=  219 fps=0.7 q=67.0 size=     325kB time=00:00:05.37 bitrate= 495.7kbits/s speed=0.016x    frame=  220 fps=0.7 q=67.0 size=     325kB time=00:00:05.41 bitrate= 491.8kbits/s speed=0.0161x    frame=  221 fps=0.7 q=67.0 size=     325kB time=00:00:05.45 bitrate= 488.1kbits/s speed=0.0162x    frame=  222 fps=0.7 q=67.0 size=     325kB time=00:00:05.50 bitrate= 484.4kbits/s speed=0.0163x    frame=  223 fps=0.7 q=67.0 size=     325kB time=00:00:05.54 bitrate= 480.7kbits/s speed=0.0163x    frame=  224 fps=0.7 q=67.0 size=     325kB time=00:00:05.58 bitrate= 477.2kbits/s speed=0.0162x    frame=  225 fps=0.7 q=68.0 size=     325kB time=00:00:05.62 bitrate= 473.6kbits/s speed=0.0163x    frame=  226 fps=0.7 q=68.0 size=     325kB time=00:00:05.66 bitrate= 470.1kbits/s speed=0.0163x    frame=  227 fps=0.7 q=68.0 size=     325kB time=00:00:05.70 bitrate= 466.8kbits/s speed=0.0164x    frame=  228 fps=0.7 q=68.0 size=     325kB time=00:00:05.75 bitrate= 463.3kbits/s speed=0.0164x    frame=  229 fps=0.7 q=68.0 size=     325kB time=00:00:05.79 bitrate= 460.0kbits/s speed=0.0165x    frame=  230 fps=0.6 q=68.0 size=     325kB time=00:00:05.83 bitrate= 456.8kbits/s speed=0.0165x    frame=  231 fps=0.6 q=68.0 size=     325kB time=00:00:05.87 bitrate= 453.5kbits/s speed=0.0165x    frame=  232 fps=0.6 q=68.0 size=     325kB time=00:00:05.91 bitrate= 450.3kbits/s speed=0.0166x    frame=  233 fps=0.7 q=68.0 size=     325kB time=00:00:05.95 bitrate= 447.2kbits/s speed=0.0167x    frame=  234 fps=0.7 q=68.0 size=     325kB time=00:00:06.00 bitrate= 444.0kbits/s speed=0.0167x    frame=  235 fps=0.7 q=68.0 size=     325kB time=00:00:06.04 bitrate= 441.0kbits/s speed=0.0168x    frame=  236 fps=0.6 q=68.0 size=     325kB time=00:00:06.08 bitrate= 438.0kbits/s speed=0.0167x    frame=  237 fps=0.6 q=68.0 size=     325kB time=00:00:06.12 bitrate= 435.0kbits/s speed=0.0168x    frame=  238 fps=0.7 q=68.0 size=     325kB time=00:00:06.16 bitrate= 432.0kbits/s speed=0.0169x    frame=  239 fps=0.7 q=68.0 size=     325kB time=00:00:06.20 bitrate= 429.2kbits/s speed=0.0169x    frame=  241 fps=0.7 q=68.0 size=     325kB time=00:00:06.29 bitrate= 423.4kbits/s speed=0.0171x    frame=  243 fps=0.7 q=68.0 size=     325kB time=00:00:06.37 bitrate= 417.9kbits/s speed=0.0173x    frame=  245 fps=0.7 q=68.0 size=     325kB time=00:00:06.45 bitrate= 412.6kbits/s speed=0.0172x    frame=  246 fps=0.7 q=68.0 size=     325kB time=00:00:06.50 bitrate= 409.9kbits/s speed=0.0172x    frame=  247 fps=0.7 q=68.0 size=     325kB time=00:00:06.54 bitrate= 407.3kbits/s speed=0.0173x    frame=  248 fps=0.7 q=68.0 size=     325kB time=00:00:06.58 bitrate= 404.7kbits/s speed=0.0173x    frame=  249 fps=0.7 q=68.0 size=     325kB time=00:00:06.62 bitrate= 402.2kbits/s speed=0.0174x    frame=  250 fps=0.7 q=68.0 size=     325kB time=00:00:06.66 bitrate= 399.6kbits/s speed=0.0174x    frame=  251 fps=0.7 q=68.0 size=     325kB time=00:00:06.70 bitrate= 397.2kbits/s speed=0.0174x    frame=  252 fps=0.7 q=68.0 size=     325kB time=00:00:06.75 bitrate= 394.7kbits/s speed=0.0175x    frame=  253 fps=0.7 q=68.0 size=     325kB time=00:00:06.79 bitrate= 392.3kbits/s speed=0.0175x    frame=  254 fps=0.7 q=68.0 size=     325kB time=00:00:06.83 bitrate= 389.9kbits/s speed=0.0176x    frame=  255 fps=0.7 q=68.0 size=     325kB time=00:00:06.87 bitrate= 387.5kbits/s speed=0.0176x    frame=  257 fps=0.7 q=68.0 size=     325kB time=00:00:06.95 bitrate= 382.9kbits/s speed=0.0176x    frame=  258 fps=0.7 q=68.0 size=     325kB time=00:00:07.00 bitrate= 380.6kbits/s speed=0.0177x    frame=  259 fps=0.7 q=68.0 size=     325kB time=00:00:07.04 bitrate= 378.3kbits/s speed=0.0178x    frame=  260 fps=0.7 q=68.0 size=     325kB time=00:00:07.08 bitrate= 376.2kbits/s speed=0.0178x    frame=  261 fps=0.7 q=69.0 size=     325kB time=00:00:07.12 bitrate= 373.9kbits/s speed=0.0178x    frame=  262 fps=0.7 q=69.0 size=     325kB time=00:00:07.16 bitrate= 371.8kbits/s speed=0.0179x    frame=  263 fps=0.7 q=69.0 size=     325kB time=00:00:07.20 bitrate= 369.6kbits/s speed=0.0179x    frame=  264 fps=0.7 q=69.0 size=     325kB time=00:00:07.25 bitrate= 367.5kbits/s speed=0.0179x    frame=  265 fps=0.7 q=69.0 size=     325kB time=00:00:07.29 bitrate= 365.4kbits/s speed=0.018x    frame=  266 fps=0.7 q=69.0 size=     325kB time=00:00:07.33 bitrate= 363.3kbits/s speed=0.018x    frame=  267 fps=0.7 q=69.0 size=     325kB time=00:00:07.37 bitrate= 361.3kbits/s speed=0.018x    frame=  268 fps=0.7 q=69.0 size=     325kB time=00:00:07.41 bitrate= 359.2kbits/s speed=0.0181x    frame=  269 fps=0.7 q=69.0 size=     325kB time=00:00:07.45 bitrate= 357.2kbits/s speed=0.0181x    frame=  270 fps=0.7 q=68.0 size=     325kB time=00:00:07.50 bitrate= 355.2kbits/s speed=0.0182x    frame=  271 fps=0.7 q=68.0 size=     325kB time=00:00:07.54 bitrate= 353.3kbits/s speed=0.0182x    frame=  272 fps=0.7 q=68.0 size=     325kB time=00:00:07.58 bitrate= 351.4kbits/s speed=0.0182x    frame=  273 fps=0.7 q=68.0 size=     325kB time=00:00:07.62 bitrate= 349.4kbits/s speed=0.0183x    frame=  274 fps=0.7 q=68.0 size=     325kB time=00:00:07.66 bitrate= 347.5kbits/s speed=0.0184x    frame=  276 fps=0.7 q=68.0 size=     325kB time=00:00:07.75 bitrate= 343.8kbits/s speed=0.0185x    frame=  277 fps=0.7 q=68.0 size=     325kB time=00:00:07.79 bitrate= 341.9kbits/s speed=0.0186x    frame=  278 fps=0.7 q=68.0 size=     325kB time=00:00:07.83 bitrate= 340.1kbits/s speed=0.0186x    frame=  279 fps=0.7 q=68.0 size=     325kB time=00:00:07.87 bitrate= 338.3kbits/s speed=0.0186x    frame=  280 fps=0.7 q=68.0 size=     325kB time=00:00:07.91 bitrate= 336.5kbits/s speed=0.0187x    frame=  281 fps=0.7 q=68.0 size=     325kB time=00:00:07.95 bitrate= 334.8kbits/s speed=0.0188x    frame=  283 fps=0.7 q=68.0 size=     325kB time=00:00:08.04 bitrate= 331.3kbits/s speed=0.0189x    frame=  284 fps=0.7 q=67.0 size=     325kB time=00:00:08.08 bitrate= 329.6kbits/s speed=0.0189x    frame=  285 fps=0.7 q=67.0 size=     325kB time=00:00:08.12 bitrate= 327.9kbits/s speed=0.019x    frame=  286 fps=0.7 q=67.0 size=     325kB time=00:00:08.16 bitrate= 326.2kbits/s speed=0.0191x    frame=  287 fps=0.7 q=67.0 size=     325kB time=00:00:08.20 bitrate= 324.6kbits/s speed=0.0191x    frame=  288 fps=0.7 q=67.0 size=     325kB time=00:00:08.25 bitrate= 323.0kbits/s speed=0.0192x    frame=  289 fps=0.7 q=67.0 size=     325kB time=00:00:08.29 bitrate= 321.3kbits/s speed=0.0192x    frame=  290 fps=0.7 q=67.0 size=     325kB time=00:00:08.33 bitrate= 319.7kbits/s speed=0.0193x    frame=  291 fps=0.7 q=67.0 size=     325kB time=00:00:08.37 bitrate= 318.1kbits/s speed=0.0193x    frame=  292 fps=0.7 q=67.0 size=     325kB time=00:00:08.41 bitrate= 316.5kbits/s speed=0.0194x    frame=  293 fps=0.7 q=67.0 size=     325kB time=00:00:08.45 bitrate= 315.0kbits/s speed=0.0194x    frame=  294 fps=0.7 q=67.0 size=     325kB time=00:00:08.50 bitrate= 313.5kbits/s speed=0.0194x    frame=  295 fps=0.7 q=67.0 size=     325kB time=00:00:08.54 bitrate= 311.9kbits/s speed=0.0195x    frame=  296 fps=0.7 q=67.0 size=     325kB time=00:00:08.58 bitrate= 310.4kbits/s speed=0.0196x    frame=  297 fps=0.7 q=67.0 size=     325kB time=00:00:08.62 bitrate= 308.9kbits/s speed=0.0196x    frame=  299 fps=0.7 q=67.0 size=     325kB time=00:00:08.70 bitrate= 306.0kbits/s speed=0.0197x    frame=  300 fps=0.7 q=67.0 size=     325kB time=00:00:08.75 bitrate= 304.5kbits/s speed=0.0197x    frame=  302 fps=0.7 q=67.0 size=     325kB time=00:00:08.83 bitrate= 301.6kbits/s speed=0.0198x    frame=  304 fps=0.7 q=66.0 size=     325kB time=00:00:08.91 bitrate= 298.8kbits/s speed=0.0199x    frame=  305 fps=0.7 q=66.0 size=     325kB time=00:00:08.95 bitrate= 297.4kbits/s speed=0.0199x    frame=  307 fps=0.7 q=66.0 size=     325kB time=00:00:09.04 bitrate= 294.7kbits/s speed=0.0199x    frame=  309 fps=0.7 q=66.0 size=     325kB time=00:00:09.12 bitrate= 292.0kbits/s speed=0.0201x    frame=  310 fps=0.7 q=66.0 size=     325kB time=00:00:09.16 bitrate= 290.7kbits/s speed=0.0201x    frame=  312 fps=0.7 q=66.0 size=     325kB time=00:00:09.25 bitrate= 288.0kbits/s speed=0.0203x    frame=  313 fps=0.7 q=66.0 size=     325kB time=00:00:09.29 bitrate= 286.7kbits/s speed=0.0203x    frame=  314 fps=0.7 q=66.0 size=     325kB time=00:00:09.33 bitrate= 285.5kbits/s speed=0.0202x    frame=  315 fps=0.7 q=66.0 size=     325kB time=00:00:09.37 bitrate= 284.2kbits/s speed=0.0202x    frame=  316 fps=0.7 q=66.0 size=     325kB time=00:00:09.41 bitrate= 282.9kbits/s speed=0.0203x    frame=  319 fps=0.7 q=66.0 size=     325kB time=00:00:09.54 bitrate= 279.2kbits/s speed=0.0205x    frame=  320 fps=0.7 q=65.0 size=     325kB time=00:00:09.58 bitrate= 278.0kbits/s speed=0.0205x    frame=  321 fps=0.7 q=66.0 size=     325kB time=00:00:09.62 bitrate= 276.8kbits/s speed=0.0205x    frame=  323 fps=0.7 q=65.0 size=     325kB time=00:00:09.70 bitrate= 274.5kbits/s speed=0.0206x    frame=  324 fps=0.7 q=65.0 size=     325kB time=00:00:09.75 bitrate= 273.3kbits/s speed=0.0206x    frame=  326 fps=0.7 q=65.0 size=     325kB time=00:00:09.83 bitrate= 271.0kbits/s speed=0.0207x    frame=  328 fps=0.7 q=66.0 size=     325kB time=00:00:09.91 bitrate= 268.7kbits/s speed=0.0208x    frame=  330 fps=0.7 q=66.0 size=     592kB time=00:00:10.00 bitrate= 485.0kbits/s speed=0.0208x    frame=  332 fps=0.7 q=66.0 size=     592kB time=00:00:10.08 bitrate= 481.0kbits/s speed=0.0209x    frame=  333 fps=0.7 q=63.0 size=     592kB time=00:00:10.12 bitrate= 479.0kbits/s speed=0.0209x    frame=  334 fps=0.7 q=66.0 size=     592kB time=00:00:10.16 bitrate= 477.0kbits/s speed=0.0209x    frame=  335 fps=0.7 q=66.0 size=     592kB time=00:00:10.20 bitrate= 475.1kbits/s speed=0.0209x    frame=  336 fps=0.7 q=66.0 size=     592kB time=00:00:10.25 bitrate= 473.1kbits/s speed=0.021x    frame=  337 fps=0.7 q=66.0 size=     592kB time=00:00:10.29 bitrate= 471.2kbits/s speed=0.021x    frame=  338 fps=0.7 q=66.0 size=     631kB time=00:00:10.33 bitrate= 500.4kbits/s speed=0.0211x    frame=  344 fps=0.7 q=66.0 size=     631kB time=00:00:10.58 bitrate= 488.6kbits/s speed=0.0215x    frame=  347 fps=0.7 q=66.0 size=     631kB time=00:00:10.70 bitrate= 482.9kbits/s speed=0.0217x    frame=  350 fps=0.7 q=66.0 size=     631kB time=00:00:10.83 bitrate= 477.3kbits/s speed=0.0219x    frame=  351 fps=0.7 q=66.0 size=     631kB time=00:00:10.87 bitrate= 475.5kbits/s speed=0.0219x    frame=  355 fps=0.7 q=66.0 size=     631kB time=00:00:11.04 bitrate= 468.3kbits/s speed=0.0222x    frame=  358 fps=0.7 q=66.0 size=     631kB time=00:00:11.16 bitrate= 463.0kbits/s speed=0.0223x    frame=  361 fps=0.7 q=66.0 size=     631kB time=00:00:11.29 bitrate= 457.9kbits/s speed=0.0224x    frame=  365 fps=0.7 q=66.0 size=     631kB time=00:00:11.45 bitrate= 451.3kbits/s speed=0.0226x    frame=  369 fps=0.7 q=66.0 size=     631kB time=00:00:11.62 bitrate= 444.8kbits/s speed=0.0228x    frame=  372 fps=0.7 q=66.0 size=     631kB time=00:00:11.75 bitrate= 440.1kbits/s speed=0.0229x    frame=  376 fps=0.7 q=66.0 size=     631kB time=00:00:11.91 bitrate= 433.9kbits/s speed=0.023x    frame=  380 fps=0.7 q=65.0 size=     631kB time=00:00:12.08 bitrate= 427.9kbits/s speed=0.0232x    frame=  385 fps=0.7 q=65.0 size=     631kB time=00:00:12.29 bitrate= 420.7kbits/s speed=0.0235x    frame=  388 fps=0.7 q=65.0 size=     631kB time=00:00:12.41 bitrate= 416.4kbits/s speed=0.0235x    frame=  394 fps=0.7 q=65.0 size=     631kB time=00:00:12.66 bitrate= 408.2kbits/s speed=0.0237x    frame=  400 fps=0.7 q=65.0 size=     631kB time=00:00:12.91 bitrate= 400.3kbits/s speed=0.024x    frame=  406 fps=0.7 q=64.0 size=     631kB time=00:00:13.16 bitrate= 392.7kbits/s speed=0.0242x    frame=  411 fps=0.8 q=64.0 size=     631kB time=00:00:13.37 bitrate= 386.6kbits/s speed=0.0245x    frame=  412 fps=0.8 q=64.0 size=     631kB time=00:00:13.41 bitrate= 385.4kbits/s speed=0.0245x    frame=  416 fps=0.8 q=64.0 size=     631kB time=00:00:13.58 bitrate= 380.7kbits/s speed=0.0246x    frame=  421 fps=0.8 q=64.0 size=     631kB time=00:00:13.79 bitrate= 374.9kbits/s speed=0.0249x    frame=  422 fps=0.8 q=64.0 size=     631kB time=00:00:13.83 bitrate= 373.8kbits/s speed=0.0249x    frame=  426 fps=0.8 q=64.0 size=     631kB time=00:00:14.00 bitrate= 369.3kbits/s speed=0.025x    frame=  432 fps=0.8 q=63.0 size=     631kB time=00:00:14.25 bitrate= 362.9kbits/s speed=0.0252x    frame=  438 fps=0.8 q=63.0 size=     631kB time=00:00:14.50 bitrate= 356.6kbits/s speed=0.0254x    frame=  444 fps=0.8 q=63.0 size=     631kB time=00:00:14.75 bitrate= 350.6kbits/s speed=0.0256x    frame=  448 fps=0.8 q=63.0 size=     631kB time=00:00:14.91 bitrate= 346.6kbits/s speed=0.0258x    frame=  450 fps=0.8 q=63.0 size=     631kB time=00:00:15.00 bitrate= 344.7kbits/s speed=0.0259x    frame=  452 fps=0.8 q=63.0 size=     631kB time=00:00:15.08 bitrate= 342.8kbits/s speed=0.0259x    frame=  454 fps=0.8 q=63.0 size=     631kB time=00:00:15.16 bitrate= 340.9kbits/s speed=0.026x    frame=  455 fps=0.8 q=63.0 size=     631kB time=00:00:15.20 bitrate= 340.0kbits/s speed=0.026x    frame=  457 fps=0.8 q=63.0 size=     631kB time=00:00:15.29 bitrate= 338.1kbits/s speed=0.0261x    frame=  459 fps=0.8 q=63.0 size=     843kB time=00:00:15.37 bitrate= 449.1kbits/s speed=0.0261x    frame=  463 fps=0.8 q=63.0 size=     843kB time=00:00:15.54 bitrate= 444.3kbits/s speed=0.0263x    frame=  467 fps=0.8 q=63.0 size=     843kB time=00:00:15.70 bitrate= 439.6kbits/s speed=0.0265x    frame=  470 fps=0.8 q=63.0 size=     843kB time=00:00:15.83 bitrate= 436.1kbits/s speed=0.0265x    frame=  474 fps=0.8 q=63.0 size=     843kB time=00:00:16.00 bitrate= 431.6kbits/s speed=0.0268x    frame=  476 fps=0.8 q=62.0 size=     843kB time=00:00:16.08 bitrate= 429.4kbits/s speed=0.0267x    frame=  479 fps=0.8 q=62.0 size=     843kB time=00:00:16.20 bitrate= 426.0kbits/s speed=0.0269x    frame=  481 fps=0.8 q=63.0 size=     843kB time=00:00:16.29 bitrate= 423.8kbits/s speed=0.0269x    frame=  483 fps=0.8 q=62.0 size=     843kB time=00:00:16.37 bitrate= 421.7kbits/s speed=0.0269x    frame=  485 fps=0.8 q=63.0 size=     843kB time=00:00:16.45 bitrate= 419.6kbits/s speed=0.027x    frame=  487 fps=0.8 q=63.0 size=     843kB time=00:00:16.54 bitrate= 417.4kbits/s speed=0.027x    frame=  490 fps=0.8 q=63.0 size=     843kB time=00:00:16.66 bitrate= 414.3kbits/s speed=0.0271x    frame=  492 fps=0.8 q=63.0 size=     843kB time=00:00:16.75 bitrate= 412.3kbits/s speed=0.0272x    frame=  493 fps=0.8 q=63.0 size=     843kB time=00:00:16.79 bitrate= 411.2kbits/s speed=0.0271x    frame=  494 fps=0.8 q=63.0 size=     843kB time=00:00:16.83 bitrate= 410.2kbits/s speed=0.0271x    frame=  496 fps=0.8 q=63.0 size=     843kB time=00:00:16.91 bitrate= 408.2kbits/s speed=0.0272x    frame=  497 fps=0.8 q=63.0 size=     843kB time=00:00:16.95 bitrate= 407.2kbits/s speed=0.0273x    frame=  500 fps=0.8 q=63.0 size=     843kB time=00:00:17.08 bitrate= 404.2kbits/s speed=0.0274x    frame=  500 fps=0.8 q=63.0 size=     843kB time=00:00:17.08 bitrate= 404.2kbits/s speed=0.0273x    frame=  500 fps=0.7 q=-1.0 Lsize=    1134kB time=00:00:20.70 bitrate= 448.8kbits/s speed=0.0302x    
video:1130kB audio:0kB subtitle:0kB other streams:0kB global headers:0kB muxing overhead: 0.381057%
bench: utime=2118.560s
bench: maxrss=4180804kB
[libx264 @ 0x343a1c0] frame I:3     Avg QP:48.36  size:  9286
[libx264 @ 0x343a1c0] frame P:267   Avg QP:50.98  size:  3695
[libx264 @ 0x343a1c0] frame B:230   Avg QP:50.93  size:   618
[libx264 @ 0x343a1c0] consecutive B-frames: 34.8% 13.6% 12.0% 16.0% 14.0%  9.6%  0.0%  0.0%  0.0%  0.0%  0.0%  0.0%  0.0%  0.0%  0.0%  0.0%  0.0%
[libx264 @ 0x343a1c0] mb I  I16..4:  7.6% 18.3% 74.1%
[libx264 @ 0x343a1c0] mb P  I16..4:  1.7% 11.2% 35.6%  P16..4:  0.8%  0.1%  0.6%  0.0%  0.0%    skip:50.0%
[libx264 @ 0x343a1c0] mb B  I16..4:  0.2%  0.0%  0.0%  B16..8:  1.7%  0.0%  0.0%  direct: 0.0%  skip:98.0%  L0:39.8% L1:59.8% BI: 0.4%
[libx264 @ 0x343a1c0] final ratefactor: 58.97
[libx264 @ 0x343a1c0] 8x8 transform intra:23.0% inter:36.8%
[libx264 @ 0x343a1c0] direct mvs  spatial:98.7% temporal:1.3%
[libx264 @ 0x343a1c0] coded y,uvDC,uvAC intra: 0.1% 1.2% 0.0% inter: 0.0% 0.0% 0.0%
[libx264 @ 0x343a1c0] i16 v,h,dc,p: 75% 12%  0% 13%
[libx264 @ 0x343a1c0] i8 v,h,dc,ddl,ddr,vr,hd,vl,hu:  1%  0% 99%  0%  0%  0%  0%  0%  0%
[libx264 @ 0x343a1c0] i4 v,h,dc,ddl,ddr,vr,hd,vl,hu:  0%  0% 100%  0%  0%  0%  0%  0%  0%
[libx264 @ 0x343a1c0] i8c dc,h,v,p: 64% 34%  2%  0%
[libx264 @ 0x343a1c0] Weighted P-Frames: Y:3.0% UV:2.6%
[libx264 @ 0x343a1c0] ref P L0: 50.8%  0.1% 16.3%  6.5%  5.3%  5.0%  4.6%  1.7%  1.3%  1.5%  1.2%  1.3%  1.0%  1.2%  1.3%  0.8%
[libx264 @ 0x343a1c0] ref B L0: 67.8% 11.3%  7.5%  3.1%  2.9%  1.9%  1.5%  0.5%  0.5%  0.5%  0.5%  0.6%  0.5%  0.7%  0.3%
[libx264 @ 0x343a1c0] ref B L1: 90.8%  9.2%
[libx264 @ 0x343a1c0] kb/s:444.14
